<?xml version="1.0" encoding="UTF-8"?>
<svg id="_レイヤー_1" data-name="レイヤー 1" xmlns="http://www.w3.org/2000/svg" viewBox="0 0 1000 1000">
  <defs>
    <style>
      .cls-1 {
        fill: #fff;
      }
    </style>
  </defs>
  <circle cx="500" cy="500" r="500"/>
  <g>
    <g>
      <path d="M546.91,341.99c-56.3,0-101.94-45.64-101.94-101.94,0-12.21,2.09-21.39,4.5-30.04,8.2-29.39,24.71-50.75,38.95-64.82,1.29-1.27-.41-3.3-1.89-2.25-25.86,18.41-57.8,48.51-70.66,92.17-4.92,16.71-4.57,27.37-4.57,30.28,0,56.3,45.64,101.94,101.94,101.94,12.09,0,21.03-2.05,30.17-4.54,27.45-7.48,47.81-22.02,61.46-34.61,1.31-1.21-.25-3.28-1.78-2.35-7.47,4.58-16.93,9.17-28.32,12.29-2.78.76-15.18,3.86-27.87,3.86Z"/>
      <path d="M686.58,466.23c1.51-1.36,3.68.67,2.41,2.27-.06.07-.11.14-.17.21-82.23,103.22-176.39,77.27-212.29,142.06-20.58,37.14-6.71,95.73,21.04,212.89,2.86,12.1,5.71,23.04,8.32,32.57.54,1.98-2.28,2.98-3.12,1.12-7.23-16.01-104.99-231.48-180.85-400.5-2.91-6.47-5.24-11.61-6.3-13.95,0,0,0-.02,0-.02s0,0,0-.02c-2.59-7.51-3.97-15.25-3.97-23.17,0-41.4,31.58-78.19,80.49-101.48,1.76-.84,3.28,1.49,1.8,2.76-24.48,21.03-38.92,46.93-38.92,74.92,0,71.04,110.07,134.05,204.04,127.52,59.51-4.14,103.53-35.54,127.54-57.19Z"/>
    </g>
    <g>
      <path class="cls-1" d="M546.91,341.99c-56.3,0-101.94-45.64-101.94-101.94,0-12.21,2.09-21.39,4.5-30.04,8.2-29.39,24.71-50.75,38.95-64.82,1.29-1.27-.41-3.3-1.89-2.25-25.86,18.41-57.8,48.51-70.66,92.17-4.92,16.71-4.57,27.37-4.57,30.28,0,56.3,45.64,101.94,101.94,101.94,12.09,0,21.03-2.05,30.17-4.54,27.45-7.48,47.81-22.02,61.46-34.61,1.31-1.21-.25-3.28-1.78-2.35-7.47,4.58-16.93,9.17-28.32,12.29-2.78.76-15.18,3.86-27.87,3.86Z"/>
      <path class="cls-1" d="M686.58,466.23c1.51-1.36,3.68.67,2.41,2.27-.06.07-.11.14-.17.21-82.23,103.22-176.39,77.27-212.29,142.06-20.58,37.14-6.71,95.73,21.04,212.89,2.86,12.1,5.71,23.04,8.32,32.57.54,1.98-2.28,2.98-3.12,1.12-7.23-16.01-104.99-231.48-180.85-400.5-2.91-6.47-5.24-11.61-6.3-13.95,0,0,0-.02,0-.02s0,0,0-.02c-2.59-7.51-3.97-15.25-3.97-23.17,0-41.4,31.58-78.19,80.49-101.48,1.76-.84,3.28,1.49,1.8,2.76-24.48,21.03-38.92,46.93-38.92,74.92,0,71.04,110.07,134.05,204.04,127.52,59.51-4.14,103.53-35.54,127.54-57.19Z"/>
    </g>
  </g>
</svg>