<?xml version="1.0" encoding="UTF-8"?>
<svg id="GB" xmlns="http://www.w3.org/2000/svg" viewBox="0 0 604.34 1000">
  <defs>
    <style>
      .cls-1 {
        fill: #d9e021;
      }

      .cls-2 {
        opacity: .3;
      }

      .cls-3 {
        fill: #4d4d4d;
      }

      .cls-4 {
        fill: #c12750;
      }

      .cls-5 {
        fill: #f2f2f2;
      }

      .cls-6 {
        fill: #b3b3b3;
      }

      .cls-7 {
        fill: #ed1c24;
      }
    </style>
  </defs>
  <path id="shell" class="cls-5" d="M604.19,15.71v849.54c0,74.42-60.33,134.75-134.75,134.75H15.86c-8.68,0-15.71-7.03-15.71-15.71V15.71C.15,7.03,7.18,0,15.86,0h572.62c8.68,0,15.71,7.03,15.71,15.71Z"/>
  <path id="glass" class="cls-6" d="M555.62,111.73v284.58c0,43.38-35.16,78.54-78.54,78.54H72.38c-13.07,0-23.66-10.59-23.66-23.66V111.73c0-13.06,10.59-23.66,23.66-23.66h459.58c13.07,0,23.66,10.6,23.66,23.66Z"/>
  <rect id="screen" class="cls-1" x="139.47" y="134.27" width="325.4" height="293.06"/>
  <polygon id="shadow" class="cls-2" points="139.47 427.33 464.87 134.27 464.87 427.33 139.47 427.33"/>
  <rect id="rubber" class="cls-6" x="284.94" y="815.59" width="77.07" height="22.56" rx="11.28" ry="11.28" transform="translate(-315.53 210.41) rotate(-24.66)"/>
  <rect id="rubber-2" data-name="rubber" class="cls-6" x="182.87" y="815.59" width="77.07" height="22.56" rx="11.28" ry="11.28" transform="translate(-324.84 167.82) rotate(-24.66)"/>
  <path id="shadow-2" data-name="shadow" class="cls-2" d="M600.46,53.83h-43.02V3.88c0-2.14-1.74-3.88-3.88-3.88s-3.88,1.74-3.88,3.88v49.96H53.15V3.88c0-2.14-1.74-3.88-3.88-3.88s-3.88,1.74-3.88,3.88v49.96H3.88c-2.14,0-3.88,1.74-3.88,3.88s1.74,3.88,3.88,3.88h596.59c2.14,0,3.88-1.74,3.88-3.88s-1.74-3.88-3.88-3.88Z"/>
  <path id="cross" class="cls-3" d="M201.15,660.46v44.38c0,3.06-2.48,5.54-5.54,5.54h-42.4v42.4c0,3.06-2.48,5.54-5.54,5.54h-44.38c-3.06,0-5.54-2.48-5.54-5.54v-42.4h-42.4c-3.06,0-5.54-2.48-5.54-5.54v-44.38c0-3.06,2.48-5.54,5.54-5.54h42.4v-42.4c0-3.06,2.48-5.54,5.54-5.54h44.38c3.06,0,5.54,2.48,5.54,5.54v42.4h42.4c3.06,0,5.54,2.48,5.54,5.54Z"/>
  <g>
    <rect id="shadow-3" data-name="shadow" class="cls-2" x="354.46" y="931.37" width="100.57" height="12.85" rx="6.42" ry="6.42" transform="translate(1014.52 118.38) rotate(60)"/>
    <rect id="shadow-4" data-name="shadow" class="cls-2" x="383.89" y="914.37" width="100.57" height="12.85" rx="6.42" ry="6.42" transform="translate(1014.52 84.39) rotate(60)"/>
    <rect id="shadow-5" data-name="shadow" class="cls-2" x="413.33" y="897.37" width="100.57" height="12.85" rx="6.42" ry="6.42" transform="translate(1014.52 50.4) rotate(60)"/>
    <rect id="shadow-6" data-name="shadow" class="cls-2" x="442.77" y="880.38" width="100.57" height="12.85" rx="6.42" ry="6.42" transform="translate(1014.51 16.41) rotate(60)"/>
    <rect id="shadow-7" data-name="shadow" class="cls-2" x="472.2" y="863.38" width="100.57" height="12.85" rx="6.42" ry="6.42" transform="translate(1014.51 -17.58) rotate(60)"/>
    <rect id="shadow-8" data-name="shadow" class="cls-2" x="502.29" y="847.52" width="100.57" height="12.85" rx="6.42" ry="6.42" transform="translate(1015.82 -51.58) rotate(60)"/>
  </g>
  <circle id="AB" class="cls-4" cx="424.04" cy="696.88" r="37.33"/>
  <circle id="AB-2" data-name="AB" class="cls-4" cx="523.21" cy="648.92" r="37.33"/>
  <circle id="lamp" class="cls-7" cx="87.43" cy="237.26" r="7.7"/>
</svg>