<?xml version="1.0" encoding="UTF-8"?>
<svg id="_レイヤー_2" data-name="レイヤー 2" xmlns="http://www.w3.org/2000/svg" viewBox="0 0 1299.33 605.45">
  <defs>
    <style>
      .cls-1 {
        fill: #d9e021;
      }

      .cls-2 {
        opacity: .3;
      }

      .cls-3 {
        fill: #4a4fae;
      }

      .cls-4 {
        fill: #333;
      }

      .cls-5 {
        fill: #1a1a1a;
        opacity: .3;
      }

      .cls-6 {
        fill: #b3b3b3;
      }
    </style>
  </defs>
  <path class="cls-6" d="M31.9,152.87c-3.61.31-6.54,3.06-7.07,6.65-7.01,47.55-12.07,88.81-15.76,122.25C1.17,353.36-.29,387.97.04,420.99c.19,18.58.91,34.38,1.63,46.16.23,3.71,1.04,7.35,2.42,10.8h0c11.13,27.79,36.91,43.08,54.92,51,0,0,9.12,1.11,9.35-6.88,1.86-64.97,1.18-367.28,1.18-367.28l-37.65-1.91Z"/>
  <path class="cls-6" d="M223.88,131.69H38.97l-8.68-6.63c-.95-.73-1.34-1.98-.95-3.11,2.65-7.69,9.12-22.53,24.06-34.93,13.5-11.2,27.41-15.02,34.49-16.46,45.33-5.36,90.66-10.72,135.99-16.07v77.21Z"/>
  <path class="cls-6" d="M968.1,152.87c3.61.31,6.54,3.06,7.07,6.65,7.01,47.55,12.07,88.81,15.76,122.25,7.89,71.6,9.35,106.2,9.02,139.22-.19,18.58-.91,34.38-1.63,46.16-.23,3.71-1.04,7.35-2.42,10.8h0c-11.13,27.79-36.91,43.08-54.92,51,0,0-9.12,1.11-9.35-6.88-1.86-64.97-1.18-367.28-1.18-367.28l37.65-1.91Z"/>
  <path class="cls-6" d="M776.12,131.69h184.91l8.68-6.63c.95-.73,1.34-1.98.95-3.11-2.65-7.69-9.12-22.53-24.06-34.93-13.5-11.2-27.41-15.02-34.49-16.46-45.33-5.36-90.66-10.72-135.99-16.07v77.21Z"/>
  <path class="cls-3" d="M980.26,275.47c-4.15-37.61-10.03-85.13-18.48-140.36-.36-2.35-1.02-4.66-2.01-6.82-3.05-6.62-9.19-16.65-20.44-21.36-.03-.02-.07-.04-.11-.05-2.73-1.14-5.67-1.68-8.63-1.79-5.24-.2-12.32-.65-20.58-1.71-49.39-6.33-92.72-28.26-127.94-46.08-7.86-3.98-16.15-7.02-24.17-10.64-3.22-1.45-7.68-3.48-13.95-4.72-1.95-.38-3.77-.63-5.41-.8,0,.01-.02,0-.03,0-17.63.01-34.87.02-51.71.03-2.98,0-6.09,0-9.35.01-37.72.06-94.29.07-166.18.06-83.18.02-147.95,0-189.5-.06-1.45-.01-2.91-.01-4.37-.01-18.16-.01-36.81-.02-55.9-.03h-.01c-1.65.16-3.48.42-5.44.8-6.27,1.24-10.73,3.27-13.95,4.72-8.02,3.62-16.31,6.66-24.17,10.64-35.22,17.82-78.55,39.75-127.94,46.08-8.26,1.06-15.34,1.51-20.58,1.71-2.96.11-5.9.65-8.63,1.79-.04.01-.08.03-.11.05-11.25,4.71-17.39,14.74-20.44,21.36-.99,2.16-1.65,4.47-2.01,6.82-8.45,55.23-14.33,102.75-18.48,140.36-7.89,71.6-9.35,106.21-9.02,139.22.18,18.58.91,34.39,1.63,46.17.22,3.7,1.04,7.35,2.42,10.8,11.13,27.79,36.91,43.08,54.92,50.99l98.61,27.72c8.19,1.89,17.32,4.48,27.08,8.05,9.17,3.37,17.35,7.03,24.49,10.64,5.71,2.76,12.39,5.57,19.98,8.06,7.24,2.37,13.97,4.01,19.98,5.15,51.8,10.46,92.65,15.29,120.85,17.73,18.64,1.61,37.83,2.69,42.84,2.98,30.88,1.73,57.01,2.3,76.48,2.46,19.47-.16,45.6-.73,76.48-2.46,5.01-.29,24.2-1.37,42.84-2.98,28.2-2.44,69.05-7.27,120.85-17.73,6.01-1.14,12.74-2.78,19.98-5.15,7.59-2.49,14.27-5.3,19.98-8.06,7.14-3.61,15.32-7.27,24.49-10.64,9.76-3.57,18.89-6.16,27.08-8.05l98.61-27.72c18.01-7.91,43.79-23.2,54.92-50.99,1.38-3.45,2.2-7.1,2.42-10.8.72-11.78,1.45-27.59,1.63-46.17.33-33.01-1.13-67.62-9.02-139.22ZM765.2,467.18v2.81c-.08,10.85-3.92,20.94-10.39,28.89-6.47,7.95-15.57,13.76-26.18,16.03-26.42,7.83-55.91,15.08-88.22,20.75-51.22,9-97.74,11.97-137.59,11.97h-2.32c-39.85,0-86.37-2.97-137.59-11.97-32.31-5.67-61.8-12.92-88.21-20.75-10.61-2.27-19.72-8.08-26.19-16.03-6.47-7.95-10.31-18.04-10.38-28.89v-2.81c-.32-15.76-.49-31.75-.49-47.95s.16-31.84.48-48.06c1.6-80.91,7.16-157.19,15.3-228.32,0-8.31,3.37-15.83,8.81-21.28,5.45-5.45,12.97-8.82,21.29-8.82h.52c23.96-3.25,48.88-6.07,74.72-8.3,43.75-3.78,85.41-5.48,124.64-5.68h36.52c39.23.2,80.89,1.9,124.64,5.68,25.84,2.23,50.76,5.05,74.73,8.3h.51c8.32,0,15.84,3.37,21.29,8.82,5.44,5.45,8.81,12.97,8.81,21.28,8.14,71.13,13.7,147.41,15.3,228.32.32,16.22.48,32.24.48,48.06s-.17,32.19-.48,47.95Z"/>
  <path class="cls-4" d="M749.9,142.85c0-8.31-3.37-15.83-8.81-21.28-5.45-5.45-12.97-8.82-21.29-8.82h-.51c-23.97-3.25-48.89-6.07-74.73-8.3-43.75-3.78-85.41-5.48-124.64-5.68h-36.52c-39.23.2-80.89,1.9-124.64,5.68-25.84,2.23-50.76,5.05-74.72,8.3h-.52c-8.32,0-15.84,3.37-21.29,8.82-5.44,5.45-8.81,12.97-8.81,21.28-8.14,71.13-13.7,147.41-15.3,228.32-.32,16.22-.48,32.24-.48,48.06s.17,32.19.48,47.95v2.81c.08,10.85,3.92,20.94,10.39,28.89,6.47,7.95,15.58,13.76,26.19,16.03,26.41,7.83,55.9,15.08,88.21,20.75,51.22,9,97.74,11.97,137.59,11.97h2.32c39.85,0,86.37-2.97,137.59-11.97,32.31-5.67,61.8-12.92,88.22-20.75,10.61-2.27,19.71-8.08,26.18-16.03,6.47-7.95,10.31-18.04,10.38-28.89v-2.81c.32-15.76.49-31.75.49-47.95s-.16-31.84-.48-48.06c-1.6-80.91-7.16-157.19-15.3-228.32ZM714.83,435.52h-429.65V148.04h429.65v287.47Z"/>
  <rect class="cls-1" x="285.17" y="148.04" width="429.65" height="287.47"/>
  <path class="cls-6" d="M197.15,261.18v25.11c0,4.38-3.56,7.93-7.94,7.93h-33.09v33.1c0,4.38-3.56,7.93-7.94,7.93h-25.1c-4.38,0-7.94-3.55-7.94-7.93v-33.1h-33.09c-4.38,0-7.94-3.55-7.94-7.93v-25.11c0-4.38,3.56-7.93,7.94-7.93h33.09v-33.1c0-4.38,3.56-7.93,7.94-7.93h25.1c4.38,0,7.94,3.55,7.94,7.93v33.1h33.09c4.38,0,7.94,3.55,7.94,7.93Z"/>
  <g>
    <rect class="cls-5" x="108.43" y="384.83" width="111.14" height="34.1" rx="17.05" ry="17.05" transform="translate(103.36 -27.92) rotate(14.17)"/>
    <circle class="cls-6" cx="201.74" cy="411.1" r="14.31"/>
  </g>
  <g>
    <rect class="cls-5" x="108.43" y="440.75" width="111.14" height="34.1" rx="17.05" ry="17.05" transform="translate(117.05 -26.22) rotate(14.17)"/>
    <circle class="cls-6" cx="201.74" cy="467.03" r="14.31"/>
  </g>
  <g>
    <rect class="cls-5" x="787.47" y="469.96" width="114.33" height="8.57" rx="4.29" ry="4.29" transform="translate(-90.13 220.21) rotate(-14.11)"/>
    <rect class="cls-5" x="787.47" y="448.93" width="114.33" height="8.57" rx="4.29" ry="4.29" transform="translate(-85 219.58) rotate(-14.11)"/>
    <rect class="cls-5" x="787.47" y="427.89" width="114.33" height="8.57" rx="4.29" ry="4.29" transform="translate(-79.87 218.94) rotate(-14.11)"/>
    <rect class="cls-5" x="787.47" y="406.85" width="114.33" height="8.57" rx="4.29" ry="4.29" transform="translate(-74.75 218.31) rotate(-14.11)"/>
    <rect class="cls-5" x="787.47" y="385.82" width="114.33" height="8.57" rx="4.29" ry="4.29" transform="translate(-69.62 217.68) rotate(-14.11)"/>
  </g>
  <circle class="cls-6" cx="822.58" cy="290.72" r="31.49"/>
  <circle class="cls-6" cx="912.68" cy="259.23" r="31.49"/>
  <circle class="cls-1" cx="822.58" cy="138.94" r="8.58"/>
  <polygon class="cls-2" points="285.17 435.52 714.83 148.04 714.83 435.52 285.17 435.52"/>
</svg>