<?xml version="1.0" encoding="UTF-8"?>
<svg id="GBC" xmlns="http://www.w3.org/2000/svg" viewBox="0 0 584.97 1000">
  <defs>
    <style>
      .cls-1 {
        fill: #29abe2;
      }

      .cls-2 {
        fill: #4f4f4f;
      }

      .cls-3 {
        fill: #d9e021;
      }

      .cls-4 {
        fill: #4e4e4e;
      }

      .cls-5 {
        fill: #505050;
      }

      .cls-6 {
        opacity: .3;
      }

      .cls-7 {
        fill: #4d4d4d;
      }

      .cls-8 {
        opacity: .3;
      }

      .cls-9 {
        fill: red;
      }

      .cls-10 {
        opacity: .6;
      }
    </style>
  </defs>
  <path id="shell" class="cls-1" d="M584.96,22.4v904.75c-1.03,6.38-3.51,15.86-10.26,24.74-11.97,15.76-30.26,20.25-39.73,22.43-87.05,20.05-184.51,23.68-184.51,23.68-16.68.62-36.17,1.31-57.98,2-21.81-.69-41.3-1.38-57.98-2,0,0-97.46-3.63-184.51-23.68-9.47-2.18-27.76-6.67-39.73-22.43-6.75-8.88-9.23-18.36-10.26-24.74V22.4C0,10.03,10.02,0,22.39,0h540.18c12.37,0,22.39,10.03,22.39,22.4Z"/>
  <path id="glass" class="cls-7" d="M546.78,57.21v417.28c-.27,1.25-1.45,5.98-5.95,9.24-3.08,2.24-6.22,2.7-7.69,2.82-38.95,4.29-79.84,7.83-122.56,10.32-40.97,2.4-80.39,3.64-118.1,3.99-37.71-.35-77.13-1.59-118.1-3.99-42.72-2.49-83.61-6.03-122.56-10.32-1.47-.12-4.61-.58-7.69-2.82-4.5-3.26-5.68-7.99-5.95-9.24V57.21c0-8.2,6.65-14.84,14.84-14.84h478.92c8.19,0,14.84,6.64,14.84,14.84Z"/>
  <rect id="screen" class="cls-3" x="105.62" y="75.92" width="373.73" height="337.2"/>
  <path id="cross" class="cls-4" d="M193.98,643.21v32.05c0,4.51-3.66,8.17-8.17,8.17h-37.13v37.13c0,4.51-3.66,8.17-8.17,8.17h-32.05c-4.51,0-8.17-3.66-8.17-8.17v-37.13h-37.13c-4.52,0-8.17-3.66-8.17-8.17v-32.05c0-4.51,3.65-8.17,8.17-8.17h37.13v-37.13c0-4.52,3.66-8.17,8.17-8.17h32.05c4.51,0,8.17,3.65,8.17,8.17v37.13h37.13c4.51,0,8.17,3.66,8.17,8.17Z"/>
  <path id="rubber" class="cls-5" d="M275.33,826c-.64,11.93-15.36,10.68-26.05,11.05-10.7-.37-25.47.9-26.1-11.07.64-11.94,15.37-10.67,26.05-11.05,10.7.38,25.47-.9,26.1,11.07Z"/>
  <path id="rubber-2" data-name="rubber" class="cls-5" d="M360.16,826.31c-.64,11.93-15.36,10.68-26.05,11.05-10.7-.37-25.47.9-26.1-11.07.64-11.94,15.37-10.67,26.05-11.05,10.7.38,25.47-.9,26.1,11.07Z"/>
  <circle id="AB" class="cls-2" cx="394.04" cy="676.2" r="35"/>
  <circle id="AB-2" data-name="AB" class="cls-2" cx="498.88" cy="642.7" r="35"/>
  <circle id="lamp" class="cls-9" cx="59.1" cy="187.2" r="9.64"/>
  <polygon id="shadow" class="cls-6" points="105.62 413.12 479.35 75.92 479.35 413.12 105.62 413.12"/>
  <g>
    <circle id="shadow-2" data-name="shadow" class="cls-8" cx="426.8" cy="934.3" r="5.1"/>
    <circle id="shadow2" class="cls-10" cx="426.8" cy="917.87" r="5.1"/>
    <circle id="shadow-3" data-name="shadow" class="cls-8" cx="426.8" cy="901.44" r="5.1"/>
    <circle id="shadow2-2" data-name="shadow2" class="cls-10" cx="426.8" cy="885.01" r="5.1"/>
    <circle id="shadow-4" data-name="shadow" class="cls-8" cx="426.8" cy="868.58" r="5.1"/>
    <circle id="shadow2-3" data-name="shadow2" class="cls-10" cx="426.8" cy="852.16" r="5.1"/>
    <circle id="shadow2-4" data-name="shadow2" class="cls-10" cx="443.3" cy="932.09" r="5.1"/>
    <circle id="shadow-5" data-name="shadow" class="cls-8" cx="443.3" cy="915.66" r="5.1"/>
    <circle id="shadow2-5" data-name="shadow2" class="cls-10" cx="443.3" cy="899.23" r="5.1"/>
    <circle id="shadow-6" data-name="shadow" class="cls-8" cx="443.3" cy="882.8" r="5.1"/>
    <circle id="shadow2-6" data-name="shadow2" class="cls-10" cx="443.3" cy="866.37" r="5.1"/>
    <circle id="shadow-7" data-name="shadow" class="cls-8" cx="443.3" cy="849.94" r="5.1"/>
    <circle id="shadow2-7" data-name="shadow2" class="cls-10" cx="443.3" cy="833.51" r="5.1"/>
    <circle id="shadow-8" data-name="shadow" class="cls-8" cx="443.3" cy="948.51" r="5.1"/>
    <circle id="shadow2-8" data-name="shadow2" class="cls-10" cx="459.8" cy="945.63" r="5.1"/>
    <circle id="shadow-9" data-name="shadow" class="cls-8" cx="459.8" cy="929.2" r="5.1"/>
    <circle id="shadow2-9" data-name="shadow2" class="cls-10" cx="459.8" cy="912.77" r="5.1"/>
    <circle id="shadow-10" data-name="shadow" class="cls-8" cx="459.8" cy="896.34" r="5.1"/>
    <circle id="shadow2-10" data-name="shadow2" class="cls-10" cx="459.8" cy="879.91" r="5.1"/>
    <circle id="shadow-11" data-name="shadow" class="cls-8" cx="459.8" cy="863.48" r="5.1"/>
    <circle id="shadow2-11" data-name="shadow2" class="cls-10" cx="459.8" cy="847.06" r="5.1"/>
    <circle id="shadow-12" data-name="shadow" class="cls-8" cx="459.8" cy="830.63" r="5.1"/>
    <circle id="shadow2-12" data-name="shadow2" class="cls-10" cx="476.29" cy="926.37" r="5.1"/>
    <circle id="shadow-13" data-name="shadow" class="cls-8" cx="476.29" cy="909.94" r="5.1"/>
    <circle id="shadow2-13" data-name="shadow2" class="cls-10" cx="476.29" cy="893.51" r="5.1"/>
    <circle id="shadow-14" data-name="shadow" class="cls-8" cx="476.29" cy="877.09" r="5.1"/>
    <circle id="shadow2-14" data-name="shadow2" class="cls-10" cx="476.29" cy="860.66" r="5.1"/>
    <circle id="shadow-15" data-name="shadow" class="cls-8" cx="476.29" cy="844.23" r="5.1"/>
    <circle id="shadow2-15" data-name="shadow2" class="cls-10" cx="476.29" cy="827.8" r="5.1"/>
    <circle id="shadow-16" data-name="shadow" class="cls-8" cx="476.29" cy="942.8" r="5.1"/>
    <circle id="shadow2-16" data-name="shadow2" class="cls-10" cx="492.79" cy="939.3" r="5.1"/>
    <circle id="shadow-17" data-name="shadow" class="cls-8" cx="492.79" cy="922.87" r="5.1"/>
    <circle id="shadow2-17" data-name="shadow2" class="cls-10" cx="492.79" cy="906.44" r="5.1"/>
    <circle id="shadow-18" data-name="shadow" class="cls-8" cx="492.79" cy="890.01" r="5.1"/>
    <circle id="shadow2-18" data-name="shadow2" class="cls-10" cx="492.79" cy="873.59" r="5.1"/>
    <circle id="shadow-19" data-name="shadow" class="cls-8" cx="492.79" cy="857.16" r="5.1"/>
    <circle id="shadow2-19" data-name="shadow2" class="cls-10" cx="492.79" cy="840.73" r="5.1"/>
    <circle id="shadow-20" data-name="shadow" class="cls-8" cx="492.79" cy="824.3" r="5.1"/>
    <circle id="shadow2-20" data-name="shadow2" class="cls-10" cx="509.29" cy="919.07" r="5.1"/>
    <circle id="shadow-21" data-name="shadow" class="cls-8" cx="509.29" cy="902.64" r="5.1"/>
    <circle id="shadow2-21" data-name="shadow2" class="cls-10" cx="509.29" cy="886.21" r="5.1"/>
    <circle id="shadow-22" data-name="shadow" class="cls-8" cx="509.29" cy="869.79" r="5.1"/>
    <circle id="shadow2-22" data-name="shadow2" class="cls-10" cx="509.29" cy="853.36" r="5.1"/>
    <circle id="shadow-23" data-name="shadow" class="cls-8" cx="509.29" cy="836.93" r="5.1"/>
    <circle id="shadow2-23" data-name="shadow2" class="cls-10" cx="509.29" cy="820.5" r="5.1"/>
    <circle id="shadow-24" data-name="shadow" class="cls-8" cx="509.29" cy="935.5" r="5.1"/>
    <circle id="shadow2-24" data-name="shadow2" class="cls-10" cx="525.79" cy="932" r="5.1"/>
    <circle id="shadow-25" data-name="shadow" class="cls-8" cx="525.79" cy="915.57" r="5.1"/>
    <circle id="shadow2-25" data-name="shadow2" class="cls-10" cx="525.79" cy="899.14" r="5.1"/>
    <circle id="shadow-26" data-name="shadow" class="cls-8" cx="525.79" cy="882.71" r="5.1"/>
    <circle id="shadow2-26" data-name="shadow2" class="cls-10" cx="525.79" cy="866.29" r="5.1"/>
    <circle id="shadow-27" data-name="shadow" class="cls-8" cx="525.79" cy="849.86" r="5.1"/>
    <circle id="shadow2-27" data-name="shadow2" class="cls-10" cx="525.79" cy="833.43" r="5.1"/>
    <circle id="shadow-28" data-name="shadow" class="cls-8" cx="525.79" cy="817" r="5.1"/>
    <circle id="shadow2-28" data-name="shadow2" class="cls-10" cx="542.28" cy="911.37" r="5.1"/>
    <circle id="shadow-29" data-name="shadow" class="cls-8" cx="542.28" cy="894.94" r="5.1"/>
    <circle id="shadow2-29" data-name="shadow2" class="cls-10" cx="542.28" cy="878.51" r="5.1"/>
    <circle id="shadow-30" data-name="shadow" class="cls-8" cx="542.28" cy="862.09" r="5.1"/>
    <circle id="shadow2-30" data-name="shadow2" class="cls-10" cx="542.28" cy="845.66" r="5.1"/>
    <circle id="shadow-31" data-name="shadow" class="cls-8" cx="542.28" cy="829.23" r="5.1"/>
  </g>
</svg>