<?xml version="1.0" encoding="UTF-8"?>
<svg id="_レイヤー_1" data-name="レイヤー 1" xmlns="http://www.w3.org/2000/svg" viewBox="0 0 584.97 1000">
  <defs>
    <style>
      .cls-1 {
        fill: #29abe2;
      }

      .cls-2 {
        fill: #d9e021;
      }

      .cls-3 {
        fill: #4d4d4d;
      }

      .cls-4 {
        opacity: .3;
      }

      .cls-5 {
        fill: red;
      }

      .cls-6 {
        fill: #333;
      }

      .cls-7 {
        fill: #1a1a1a;
      }

      .cls-8 {
        opacity: .7;
      }
    </style>
  </defs>
  <path class="cls-1" d="M562.57,0H22.39C10.02,0,0,10.03,0,22.4v904.75c1.03,6.38,3.51,15.86,10.26,24.74,11.97,15.76,30.26,20.25,39.73,22.43,87.05,20.05,184.51,23.68,184.51,23.68,16.68.62,36.17,1.31,57.98,2,21.81-.69,41.3-1.38,57.98-2,0,0,97.46-3.63,184.51-23.68,9.47-2.18,27.76-6.67,39.73-22.43,6.75-8.88,9.23-18.36,10.26-24.74V22.4c0-12.37-10.02-22.4-22.39-22.4ZM546.78,474.49c-.27,1.25-1.45,5.98-5.95,9.24-3.08,2.24-6.22,2.7-7.69,2.82-38.95,4.29-79.84,7.83-122.56,10.32-40.97,2.4-80.39,3.64-118.1,3.99-37.71-.35-77.13-1.59-118.1-3.99-42.72-2.49-83.61-6.03-122.56-10.32-1.47-.12-4.61-.58-7.69-2.82-4.5-3.26-5.68-7.99-5.95-9.24V57.21c0-8.2,6.65-14.84,14.84-14.84h478.92c8.19,0,14.84,6.64,14.84,14.84v417.28Z"/>
  <path class="cls-3" d="M531.94,42.37H53.02c-8.19,0-14.84,6.64-14.84,14.84v417.28c.27,1.25,1.45,5.98,5.95,9.24,3.08,2.24,6.22,2.7,7.69,2.82,38.95,4.29,79.84,7.83,122.56,10.32,40.97,2.4,80.39,3.64,118.1,3.99,37.71-.35,77.13-1.59,118.1-3.99,42.72-2.49,83.61-6.03,122.56-10.32,1.47-.12,4.61-.58,7.69-2.82,4.5-3.26,5.68-7.99,5.95-9.24V57.21c0-8.2-6.65-14.84-14.84-14.84ZM479.35,413.12H105.62V75.92h373.73v337.2Z"/>
  <rect class="cls-2" x="105.62" y="75.92" width="373.73" height="337.2"/>
  <path class="cls-3" d="M193.98,643.21v32.05c0,4.51-3.66,8.17-8.17,8.17h-37.13v37.13c0,4.51-3.66,8.17-8.17,8.17h-32.05c-4.51,0-8.17-3.66-8.17-8.17v-37.13h-37.13c-4.52,0-8.17-3.66-8.17-8.17v-32.05c0-4.51,3.65-8.17,8.17-8.17h37.13v-37.13c0-4.52,3.66-8.17,8.17-8.17h32.05c4.51,0,8.17,3.65,8.17,8.17v37.13h37.13c4.51,0,8.17,3.66,8.17,8.17Z"/>
  <path class="cls-3" d="M275.33,826c-.64,11.93-15.36,10.68-26.05,11.05-10.7-.37-25.47.9-26.1-11.07.64-11.94,15.37-10.67,26.05-11.05,10.7.38,25.47-.9,26.1,11.07Z"/>
  <path class="cls-6" d="M249.81,837.04s.1.01.15,0c-.23.01-.45.01-.68.01.17,0,.35,0,.53-.01Z"/>
  <path class="cls-6" d="M249.28,814.93c.23,0,.45,0,.68.01-.22,0-.46-.01-.68-.01Z"/>
  <path class="cls-6" d="M275.38,825.98c0,.1,0,.22-.02.32-.03-.21-.03-.41,0-.62.03.1.02.2.02.3Z"/>
  <path class="cls-6" d="M223.15,825.68c.03.21.03.41,0,.62-.03-.2-.03-.42,0-.62Z"/>
  <path class="cls-6" d="M248.7,837.04c.18.01.36.01.53.01-.23,0-.45,0-.68-.01.05.01.1,0,.15,0Z"/>
  <path class="cls-6" d="M248.7,814.94s-.1,0-.15,0c.23-.01.45-.01.68-.01-.17,0-.35,0-.53.01Z"/>
  <path class="cls-3" d="M360.16,826.31c-.64,11.93-15.36,10.68-26.05,11.05-10.7-.37-25.47.9-26.1-11.07.64-11.94,15.37-10.67,26.05-11.05,10.7.38,25.47-.9,26.1,11.07Z"/>
  <circle class="cls-3" cx="394.04" cy="676.2" r="35"/>
  <circle class="cls-3" cx="498.88" cy="642.7" r="35"/>
  <g class="cls-8">
    <circle class="cls-7" cx="443.37" cy="833.1" r="5.1"/>
    <circle class="cls-3" cx="443.37" cy="849.57" r="5.1"/>
    <circle class="cls-7" cx="443.37" cy="866.04" r="5.1"/>
    <circle class="cls-3" cx="443.37" cy="882.51" r="5.1"/>
    <circle class="cls-7" cx="443.37" cy="898.99" r="5.1"/>
    <circle class="cls-3" cx="443.37" cy="915.46" r="5.1"/>
    <circle class="cls-7" cx="443.37" cy="931.93" r="5.1"/>
    <circle class="cls-3" cx="443.37" cy="948.4" r="5.1"/>
  </g>
  <g class="cls-8">
    <circle class="cls-3" cx="459.85" cy="830.45" r="5.1"/>
    <circle class="cls-7" cx="459.85" cy="846.92" r="5.1"/>
    <circle class="cls-3" cx="459.85" cy="863.39" r="5.1"/>
    <circle class="cls-7" cx="459.85" cy="879.86" r="5.1"/>
    <circle class="cls-3" cx="459.85" cy="896.34" r="5.1"/>
    <circle class="cls-7" cx="459.85" cy="912.81" r="5.1"/>
    <circle class="cls-3" cx="459.85" cy="929.28" r="5.1"/>
    <circle class="cls-7" cx="459.85" cy="945.75" r="5.1"/>
  </g>
  <g class="cls-8">
    <circle class="cls-7" cx="476.34" cy="827.35" r="5.1"/>
    <circle class="cls-3" cx="476.34" cy="843.82" r="5.1"/>
    <circle class="cls-7" cx="476.34" cy="860.29" r="5.1"/>
    <circle class="cls-3" cx="476.34" cy="876.76" r="5.1"/>
    <circle class="cls-7" cx="476.34" cy="893.24" r="5.1"/>
    <circle class="cls-3" cx="476.34" cy="909.71" r="5.1"/>
    <circle class="cls-7" cx="476.34" cy="926.18" r="5.1"/>
    <circle class="cls-3" cx="476.34" cy="942.65" r="5.1"/>
  </g>
  <g class="cls-8">
    <circle class="cls-3" cx="492.82" cy="824.05" r="5.1"/>
    <circle class="cls-7" cx="492.82" cy="840.52" r="5.1"/>
    <circle class="cls-3" cx="492.82" cy="856.99" r="5.1"/>
    <circle class="cls-7" cx="492.82" cy="873.46" r="5.1"/>
    <circle class="cls-3" cx="492.82" cy="889.94" r="5.1"/>
    <circle class="cls-7" cx="492.82" cy="906.41" r="5.1"/>
    <circle class="cls-3" cx="492.82" cy="922.88" r="5.1"/>
    <circle class="cls-7" cx="492.82" cy="939.35" r="5.1"/>
  </g>
  <g class="cls-8">
    <circle class="cls-7" cx="509.3" cy="820.45" r="5.1"/>
    <circle class="cls-3" cx="509.3" cy="836.92" r="5.1"/>
    <circle class="cls-7" cx="509.3" cy="853.39" r="5.1"/>
    <circle class="cls-3" cx="509.3" cy="869.86" r="5.1"/>
    <circle class="cls-7" cx="509.3" cy="886.34" r="5.1"/>
    <circle class="cls-3" cx="509.3" cy="902.81" r="5.1"/>
    <circle class="cls-7" cx="509.3" cy="919.28" r="5.1"/>
    <circle class="cls-3" cx="509.3" cy="935.75" r="5.1"/>
  </g>
  <g class="cls-8">
    <circle class="cls-3" cx="525.78" cy="816.75" r="5.1"/>
    <circle class="cls-7" cx="525.78" cy="833.22" r="5.1"/>
    <circle class="cls-3" cx="525.78" cy="849.69" r="5.1"/>
    <circle class="cls-7" cx="525.78" cy="866.16" r="5.1"/>
    <circle class="cls-3" cx="525.78" cy="882.64" r="5.1"/>
    <circle class="cls-7" cx="525.78" cy="899.11" r="5.1"/>
    <circle class="cls-3" cx="525.78" cy="915.58" r="5.1"/>
    <circle class="cls-7" cx="525.78" cy="932.05" r="5.1"/>
  </g>
  <g class="cls-8">
    <circle class="cls-7" cx="426.88" cy="852.12" r="5.1"/>
    <circle class="cls-3" cx="426.88" cy="868.59" r="5.1"/>
    <circle class="cls-7" cx="426.88" cy="885.06" r="5.1"/>
    <circle class="cls-3" cx="426.88" cy="901.54" r="5.1"/>
    <circle class="cls-7" cx="426.88" cy="918.01" r="5.1"/>
    <circle class="cls-3" cx="426.88" cy="934.48" r="5.1"/>
  </g>
  <g class="cls-8">
    <circle class="cls-3" cx="542.18" cy="829.02" r="5.1"/>
    <circle class="cls-7" cx="542.18" cy="845.49" r="5.1"/>
    <circle class="cls-3" cx="542.18" cy="861.96" r="5.1"/>
    <circle class="cls-7" cx="542.18" cy="878.44" r="5.1"/>
    <circle class="cls-3" cx="542.18" cy="894.91" r="5.1"/>
    <circle class="cls-7" cx="542.18" cy="911.38" r="5.1"/>
  </g>
  <circle class="cls-5" cx="59.1" cy="187.2" r="9.64"/>
  <polygon class="cls-4" points="105.62 413.12 479.35 75.92 479.35 413.12 105.62 413.12"/>
</svg>