<?xml version="1.0" encoding="UTF-8"?>
<svg id="GBP" xmlns="http://www.w3.org/2000/svg" viewBox="0 0 608.16 1000">
  <defs>
    <style>
      .cls-1 {
        opacity: .6;
      }

      .cls-2 {
        fill: #4f4f4f;
      }

      .cls-3 {
        fill: #d9e021;
      }

      .cls-4 {
        fill: #4e4e4e;
      }

      .cls-5 {
        fill: #505050;
      }

      .cls-6 {
        opacity: .3;
      }

      .cls-7 {
        fill: #4d4d4d;
      }

      .cls-8 {
        fill: red;
      }

      .cls-9 {
        fill: #ffc900;
      }
    </style>
  </defs>
  <path id="shell" class="cls-9" d="M608.16,21.19v874.45c0,57.64-46.73,104.36-104.36,104.36H21.19c-11.7,0-21.19-9.49-21.19-21.19V21.19C0,9.49,9.49,0,21.19,0h565.78c11.7,0,21.19,9.49,21.19,21.19Z"/>
  <path id="glass" class="cls-7" d="M570.73,72.53v386.21c0,31.86-25.82,57.68-57.68,57.68H46.8c-5.18,0-9.37-4.19-9.37-9.37V72.53c0-5.17,4.19-9.36,9.37-9.36h514.56c5.18,0,9.37,4.19,9.37,9.36Z"/>
  <rect id="screen" class="cls-3" x="108.48" y="106.93" width="391.2" height="350.93" rx="7.18" ry="7.18"/>
  <path id="shadow" class="cls-6" d="M497.46,108.92L110.7,455.86c1.29,1.23,3.03,1.99,4.95,1.99h376.85c3.96,0,7.18-3.21,7.18-7.18V114.11c0-2.04-.86-3.88-2.22-5.18Z"/>
  <path id="cross" class="cls-5" d="M199.03,655.56v41.3c0,3.23-2.62,5.85-5.85,5.85h-42.84v42.84c0,3.24-2.62,5.86-5.86,5.86h-41.3c-3.23,0-5.85-2.62-5.85-5.86v-42.84h-42.85c-3.23,0-5.85-2.62-5.85-5.85v-41.3c0-3.24,2.62-5.86,5.85-5.86h42.85v-42.84c0-3.23,2.62-5.85,5.85-5.85h41.3c3.24,0,5.86,2.62,5.86,5.85v42.84h42.84c3.23,0,5.85,2.62,5.85,5.86Z"/>
  <rect id="rubber" class="cls-2" x="224.92" y="832.62" width="68.42" height="23.95" rx="11.98" ry="11.98"/>
  <rect id="rubber-2" data-name="rubber" class="cls-2" x="317.17" y="832.62" width="68.42" height="23.95" rx="11.98" ry="11.98"/>
  <circle id="AB" class="cls-4" cx="412.98" cy="694.44" r="37.6"/>
  <circle id="AB-2" data-name="AB" class="cls-4" cx="525.68" cy="658.16" r="37.6"/>
  <circle id="lamp" class="cls-8" cx="56.42" cy="180.2" r="7.84"/>
  <g>
    <circle id="shadow-2" data-name="shadow" class="cls-6" cx="467.28" cy="958.9" r="4.41"/>
    <circle id="shadow2" class="cls-1" cx="467.28" cy="940.82" r="4.41"/>
    <circle id="shadow-3" data-name="shadow" class="cls-6" cx="467.28" cy="922.73" r="4.41"/>
    <circle id="shadow2-2" data-name="shadow2" class="cls-1" cx="467.28" cy="904.65" r="4.41"/>
    <circle id="shadow-4" data-name="shadow" class="cls-6" cx="467.28" cy="886.57" r="4.41"/>
    <circle id="shadow-5" data-name="shadow" class="cls-6" cx="484.9" cy="940.82" r="4.41"/>
    <circle id="shadow2-3" data-name="shadow2" class="cls-1" cx="484.9" cy="922.73" r="4.41"/>
    <circle id="shadow-6" data-name="shadow" class="cls-6" cx="484.9" cy="904.65" r="4.41"/>
    <circle id="shadow2-4" data-name="shadow2" class="cls-1" cx="484.9" cy="886.57" r="4.41"/>
    <circle id="shadow-7" data-name="shadow" class="cls-6" cx="484.9" cy="868.48" r="4.41"/>
    <circle id="shadow2-5" data-name="shadow2" class="cls-1" cx="484.9" cy="958.9" r="4.41"/>
    <circle id="shadow-8" data-name="shadow" class="cls-6" cx="502.51" cy="958.9" r="4.41"/>
    <circle id="shadow2-6" data-name="shadow2" class="cls-1" cx="502.51" cy="940.82" r="4.41"/>
    <circle id="shadow-9" data-name="shadow" class="cls-6" cx="502.51" cy="922.73" r="4.41"/>
    <circle id="shadow2-7" data-name="shadow2" class="cls-1" cx="502.51" cy="904.65" r="4.41"/>
    <circle id="shadow-10" data-name="shadow" class="cls-6" cx="502.51" cy="886.57" r="4.41"/>
    <circle id="shadow2-8" data-name="shadow2" class="cls-1" cx="502.51" cy="868.48" r="4.41"/>
    <circle id="shadow-11" data-name="shadow" class="cls-6" cx="502.51" cy="850.4" r="4.41"/>
    <circle id="shadow-12" data-name="shadow" class="cls-6" cx="520.13" cy="940.82" r="4.41"/>
    <circle id="shadow2-9" data-name="shadow2" class="cls-1" cx="520.13" cy="922.73" r="4.41"/>
    <circle id="shadow-13" data-name="shadow" class="cls-6" cx="520.13" cy="904.65" r="4.41"/>
    <circle id="shadow2-10" data-name="shadow2" class="cls-1" cx="520.13" cy="886.57" r="4.41"/>
    <circle id="shadow-14" data-name="shadow" class="cls-6" cx="520.13" cy="868.48" r="4.41"/>
    <circle id="shadow2-11" data-name="shadow2" class="cls-1" cx="520.13" cy="850.4" r="4.41"/>
    <circle id="shadow2-12" data-name="shadow2" class="cls-1" cx="520.13" cy="958.9" r="4.41"/>
    <circle id="shadow-15" data-name="shadow" class="cls-6" cx="537.75" cy="958.9" r="4.41"/>
    <circle id="shadow2-13" data-name="shadow2" class="cls-1" cx="537.75" cy="940.82" r="4.41"/>
    <circle id="shadow-16" data-name="shadow" class="cls-6" cx="537.75" cy="922.73" r="4.41"/>
    <circle id="shadow2-14" data-name="shadow2" class="cls-1" cx="537.75" cy="904.65" r="4.41"/>
    <circle id="shadow-17" data-name="shadow" class="cls-6" cx="537.75" cy="886.57" r="4.41"/>
    <circle id="shadow2-15" data-name="shadow2" class="cls-1" cx="537.75" cy="868.48" r="4.41"/>
    <circle id="shadow-18" data-name="shadow" class="cls-6" cx="537.75" cy="850.4" r="4.41"/>
    <circle id="shadow-19" data-name="shadow" class="cls-6" cx="555.36" cy="940.82" r="4.41"/>
    <circle id="shadow2-16" data-name="shadow2" class="cls-1" cx="555.36" cy="922.73" r="4.41"/>
    <circle id="shadow-20" data-name="shadow" class="cls-6" cx="555.36" cy="904.65" r="4.41"/>
    <circle id="shadow2-17" data-name="shadow2" class="cls-1" cx="555.36" cy="886.57" r="4.41"/>
    <circle id="shadow-21" data-name="shadow" class="cls-6" cx="555.36" cy="868.48" r="4.41"/>
    <circle id="shadow2-18" data-name="shadow2" class="cls-1" cx="555.36" cy="850.4" r="4.41"/>
    <circle id="shadow-22" data-name="shadow" class="cls-6" cx="572.98" cy="922.73" r="4.41"/>
    <circle id="shadow2-19" data-name="shadow2" class="cls-1" cx="572.98" cy="904.65" r="4.41"/>
    <circle id="shadow-23" data-name="shadow" class="cls-6" cx="572.98" cy="886.57" r="4.41"/>
    <circle id="shadow2-20" data-name="shadow2" class="cls-1" cx="572.98" cy="868.48" r="4.41"/>
    <circle id="shadow-24" data-name="shadow" class="cls-6" cx="572.98" cy="850.4" r="4.41"/>
  </g>
</svg>