<?xml version="1.0" encoding="UTF-8"?>
<svg id="_レイヤー_2" data-name="レイヤー 2" xmlns="http://www.w3.org/2000/svg" viewBox="0 0 811.22 1000">
  <defs>
    <style>
      .cls-1 {
        fill: #4a4fae;
      }

      .cls-2 {
        fill: #1a1a1a;
      }

      .cls-3 {
        fill: #b3b3b3;
      }

      .cls-4 {
        fill: none;
        opacity: .3;
        stroke: #000;
        stroke-miterlimit: 10;
        stroke-width: 5px;
      }
    </style>
  </defs>
  <path d="M401.99,0C222.65,0,77.28,145.38,77.28,324.71s145.38,324.71,324.71,324.71,324.71-145.38,324.71-324.71S581.32,0,401.99,0ZM405.61,542.03c-127.2,0-230.31-103.11-230.31-230.31s103.11-230.31,230.31-230.31,230.31,103.11,230.31,230.31-103.11,230.31-230.31,230.31Z"/>
  <rect class="cls-1" y="163.74" width="811.22" height="836.26" rx="17.82" ry="17.82"/>
  <circle class="cls-2" cx="405.61" cy="575.65" r="216.64"/>
  <circle class="cls-3" cx="91.5" cy="359.01" r="47.3"/>
  <circle class="cls-4" cx="91.5" cy="870.71" r="43.55"/>
  <path class="cls-4" d="M92,163.74l.73,129.2c.03,5.19,3.85,9.56,8.99,10.33,27.45,4.13,48.36,27.05,48.36,55.73s-21.97,52.6-49.64,56.91c-5.14.8-8.94,5.2-8.93,10.4l.49,376.57c0,5.61,4.09,10.31,9.62,11.29,26.9,4.78,47.32,28.27,47.32,56.54v.07c0,4.03,2.91,7.47,6.91,7.97,31.05,7.46,64.88,14.22,101.26,19.54,15.31,2.24,30.29,4.12,44.9,5.67,36.98,3.92,71.66,5.77,103.6,6.24,31.94-.47,66.62-2.32,103.6-6.24,14.61-1.55,29.59-3.43,44.9-5.67,36.38-5.32,70.21-12.08,101.26-19.54,4-.5,6.91-3.94,6.91-7.97v-.07c0-28.27,20.42-51.76,47.32-56.54,5.53-.98,9.62-5.68,9.62-11.29V163.74"/>
  <circle class="cls-4" cx="719.22" cy="870.71" r="43.55"/>
  <path d="M405.61,913.03c-28.56-.42-59.31-1.95-91.93-5.07,27.55,14.48,58.7,22.64,91.69,22.64s64.05-8.14,91.57-22.59c-32.4,3.08-62.95,4.59-91.33,5.01Z"/>
</svg>