<?xml version="1.0" encoding="UTF-8"?>
<svg id="_レイヤー_2" data-name="レイヤー 2" xmlns="http://www.w3.org/2000/svg" viewBox="0 0 823.58 1000">
  <defs>
    <style>
      .cls-1 {
        fill: #4d4d4d;
      }

      .cls-2 {
        fill: red;
      }

      .cls-3 {
        fill: #b3b3b3;
      }

      .cls-4 {
        fill: #e6e6e6;
      }

      .cls-5 {
        fill: none;
        opacity: .3;
        stroke: #000;
        stroke-miterlimit: 10;
        stroke-width: 5px;
      }
    </style>
  </defs>
  <rect class="cls-4" width="823.58" height="1000" rx="61.53" ry="61.53"/>
  <path class="cls-5" d="M755.39,975H68.19c-26.29,0-47.6-21.31-47.6-47.6V72.6c0-26.29,21.31-47.6,47.6-47.6h687.2c26.29,0,47.6,21.31,47.6,47.6v854.8c0,26.29-21.31,47.6-47.6,47.6ZM112.44,975l.82-950M68.19,975h687.2c26.29,0,47.6-21.31,47.6-47.6V72.6c0-26.29-21.31-47.6-47.6-47.6H68.19c-26.29,0-47.6,21.31-47.6,47.6v854.8c0,26.29,21.31,47.6,47.6,47.6ZM711.14,975l-.82-950M133.76,0v25M159.04,0v25M184.31,0v25M209.59,0v25M234.86,0v25M260.14,0v25M285.41,0v25M310.69,0v25M335.96,0v25M361.24,0v25M386.51,0v25M411.79,0v25M437.06,0v25M462.34,0v25M487.61,0v25M512.89,0v25M538.16,0v25M563.44,0v25M588.71,0v25M613.99,0v25M639.26,0v25M664.54,0v25M689.81,0v25"/>
  <path class="cls-3" d="M730.77,118.63H92.81c-15.81,0-28.63,12.82-28.63,28.63v637.97c0,15.81,12.82,28.63,28.63,28.63h637.97c15.81,0,28.63-12.82,28.63-28.63V147.26c0-15.81-12.82-28.63-28.63-28.63ZM256.91,753.73c0,13.1-10.62,23.72-23.72,23.72h-82.73c-13.1,0-23.72-10.62-23.72-23.72v-99c0-13.1,10.62-23.72,23.72-23.72h82.73c13.1,0,23.72,10.62,23.72,23.72v99ZM693.88,753.73c0,13.1-10.62,23.72-23.72,23.72h-82.73c-13.1,0-23.72-10.62-23.72-23.72v-99c0-13.1,10.62-23.72,23.72-23.72h82.73c13.1,0,23.72,10.62,23.72,23.72v99Z"/>
  <path class="cls-1" d="M692.75,387.5c-.36-.86-.81-1.67-1.32-2.43-.77-1.14-1.7-2.17-2.77-3.04-2.47-2.04-5.65-3.27-9.11-3.27H144.02c-2.47,0-4.8.63-6.82,1.73s-3.76,2.68-5.05,4.58c-.51.76-.96,1.58-1.32,2.43-.18.43-.34.87-.48,1.32-.42,1.34-.64,2.77-.64,4.26v29.66c0,9.69,3.99,19.05,11.28,25.43.33.28.66.57,1,.85,2.98,2.43,6.01,4.14,8.78,5.35,3.86,1.68,7.99,2.64,12.18,3.01,35.05,3.09,71.26,5.64,108.57,7.55,48.5,2.48,95.3,3.66,140.26,3.82,44.96-.16,91.76-1.35,140.26-3.82,37.31-1.9,73.52-4.46,108.57-7.55,4.19-.37,8.32-1.33,12.18-3.01,2.78-1.21,5.81-2.92,8.78-5.35.34-.28.68-.56,1-.85,7.29-6.38,11.28-15.74,11.28-25.43v-29.66c0-1.48-.23-2.91-.64-4.26-.14-.45-.3-.89-.48-1.32Z"/>
  <rect class="cls-1" x="136.31" y="642.98" width="109.21" height="122.86" rx="13.32" ry="13.32"/>
  <rect class="cls-1" x="573.27" y="642.98" width="109.21" height="122.86" rx="13.32" ry="13.32"/>
  <rect class="cls-5" x="294.78" y="641.84" width="234.01" height="120.91" rx="11.31" ry="11.31"/>
  <rect class="cls-2" x="603.79" y="925.03" width="43.6" height="14.42" rx="7.21" ry="7.21"/>
</svg>